<svg width="16" height="13" viewBox="0 0 16 13" fill="none" xmlns="http://www.w3.org/2000/svg">
<path d="M15.529 1.38277C14.5592 0.969668 13.5887 0.8125 12.6187 0.8125C9.5395 0.812246 6.4605 2.39535 3.38125 2.39535C2.609 2.39535 1.83725 2.29582 1.065 2.04699C0.97825 2.01906 0.89125 2.00586 0.80625 2.00586C0.376 2.00586 0 2.34406 0 2.81354V10.869C0 11.1896 0.18075 11.4936 0.471 11.617C1.44075 12.0303 2.41125 12.1875 3.38125 12.1875C6.4605 12.1875 9.53975 10.6044 12.619 10.6044C13.3912 10.6044 14.163 10.7039 14.9352 10.9528C15.022 10.9807 15.109 10.9939 15.194 10.9939C15.6242 10.9939 16.0002 10.6557 16.0002 10.1862V2.13104C16 1.8101 15.8192 1.50643 15.529 1.38277ZM8 8.9375C6.89525 8.9375 6 7.84596 6 6.5C6 5.15379 6.8955 4.0625 8 4.0625C9.1045 4.0625 10 5.15379 10 6.5C10 7.84646 9.10425 8.9375 8 8.9375Z" fill="#434343"/>
</svg>
