<svg width="14" height="13" viewBox="0 0 14 13" fill="none" xmlns="http://www.w3.org/2000/svg">
<path d="M12.5 3.00001H9.9575C9.83946 2.30101 9.47765 1.66642 8.93626 1.20879C8.39487 0.751159 7.70889 0.500076 7 0.500076C6.29111 0.500076 5.60513 0.751159 5.06374 1.20879C4.52235 1.66642 4.16054 2.30101 4.0425 3.00001H1.5C1.23487 3.00031 0.980694 3.10576 0.793222 3.29323C0.60575 3.4807 0.500298 3.73488 0.5 4.00001V12C0.500298 12.2651 0.60575 12.5193 0.793222 12.7068C0.980694 12.8943 1.23487 12.9997 1.5 13H12.5C12.7651 12.9997 13.0193 12.8943 13.2068 12.7068C13.3942 12.5193 13.4997 12.2651 13.5 12V4.00001C13.4997 3.73488 13.3942 3.4807 13.2068 3.29323C13.0193 3.10576 12.7651 3.00031 12.5 3.00001ZM7 1.50001C7.44327 1.50059 7.87383 1.64814 8.22428 1.91957C8.57472 2.19099 8.82527 2.57097 8.93669 3.00001H5.06331C5.17473 2.57097 5.42528 2.19099 5.77572 1.91957C6.12617 1.64814 6.55673 1.50059 7 1.50001Z" fill="#434343"/>
</svg>
